<?xml version="1.0" encoding="iso-8859-1"?>
<!-- Generator: Adobe Illustrator 19.0.0, SVG Export Plug-In . SVG Version: 6.00 Build 0)  -->
<svg version="1.1" id="Capa_1" xmlns="http://www.w3.org/2000/svg" xmlns:xlink="http://www.w3.org/1999/xlink" x="0px" y="0px"
	 viewBox="0 0 496 496" style="enable-background:new 0 0 496 496;" xml:space="preserve">
<g>
	<rect x="185.44" y="456" style="fill:#333333;" width="16" height="16"/>
	<path style="fill:#333333;" d="M173.44,176c-11.024,0-20,8.976-20,20s8.976,20,20,20s20-8.976,20-20S184.464,176,173.44,176z
		 M173.44,200c-2.208,0-4-1.792-4-4s1.792-4,4-4s4,1.792,4,4S175.648,200,173.44,200z"/>
	<path style="fill:#333333;" d="M277.44,176c-11.024,0-20,8.976-20,20s8.976,20,20,20s20-8.976,20-20S288.464,176,277.44,176z
		 M277.44,200c-2.208,0-4-1.792-4-4s1.792-4,4-4s4,1.792,4,4S279.648,200,277.44,200z"/>
	<path style="fill:#333333;" d="M449.44,80h-82.904C355.656,34.208,314.512,0,265.44,0h-80c-57.344,0-104,46.656-104,104v24v16v72
		c0,20.184,15.08,36.752,34.536,39.448c6.584,31.024,25.992,57.712,53.464,73.52v8.168l-41.304,6.352
		c-36.96,5.688-68.048,32.424-79.2,68.112L22.56,496h405.76l-26.376-84.392c-11.152-35.688-42.24-62.424-79.2-68.112l-41.304-6.36
		v-8.168c27.472-15.808,46.88-42.496,53.464-73.52c19.456-2.696,34.536-19.264,34.536-39.448v-72h80c13.232,0,24-10.768,24-24v-16
		C473.44,90.768,462.672,80,449.44,80z M353.44,104v24h-32.216c-2.656-61.224-35.424-94.84-61.488-112h5.704
		C313.96,16,353.44,55.48,353.44,104z M249.44,128h-48V96h48V128z M185.44,80v48h-39.792c3.88-82.48,67.152-107.456,79.792-111.624
		C238.08,20.544,301.352,45.52,305.232,128H265.44V80H185.44z M337.44,144h16v40.208c-4.672-3.536-10.056-6.184-16-7.392V144z
		 M97.44,104c0-48.52,39.48-88,88-88h5.296c-4.704,3.096-9.608,6.696-14.528,10.944C155.904,44.48,131.936,76.064,129.664,128H97.44
		V104z M113.44,144v32.808c-5.944,1.216-11.328,3.856-16,7.392V144H113.44z M97.44,216c0-10.416,6.712-19.216,16-22.528V232
		c0,2.224,0.136,4.416,0.264,6.608C104.28,235.368,97.44,226.512,97.44,216z M64.208,416.376
		c8.408-26.904,30.376-47.608,57.232-54.992V480H99.2l6.088-30.432L89.6,446.424L82.88,480H44.32L64.208,416.376z M265.44,370.088
		c6.664-5.864,10.84-12.384,13.128-17.2l2.872,0.44V480h-16V370.088z M386.672,416.376L406.56,480h-38.344l-6.888-41.32
		l-15.784,2.632L352,480h-22.56v-16h-16v16h-16V355.784l16,2.464V448h16v-86.608C356.304,368.768,378.272,389.472,386.672,416.376z
		 M254.984,323.368l4.92,15.224c1.888-0.608,3.704-1.336,5.536-2.04v6.248c-0.816,2.44-4.12,10.824-12.76,17.216l5.904,7.984h-9.144
		v112h-16v-48h-16v48h-48v-88h-16v88h-16V358.248l34.856-5.36c0.44,0.936,0.952,1.928,1.528,2.976l14-7.744
		c-1.336-2.416-2.056-4.344-2.384-5.328v-6.232c1.84,0.704,3.664,1.432,5.552,2.04l4.912-15.224
		c-39.752-12.84-66.464-49.56-66.464-91.376v-88h192v88C321.44,273.808,294.736,310.528,254.984,323.368z M337.176,238.608
		c0.128-2.192,0.264-4.384,0.264-6.608v-38.528c9.288,3.312,16,12.112,16,22.528C353.44,226.512,346.608,235.368,337.176,238.608z
		 M457.44,120c0,4.408-3.592,8-8,8h-80v-24c0-2.704-0.2-5.352-0.408-8h80.408c4.408,0,8,3.592,8,8V120z"/>
</g>
<path style="fill:#FFA64D;" d="M209.44,448c-30.872,0-56-25.128-56-56c0-23.064,14.32-43.704,35.456-52.056L193.952,264h62.968
	l8.096,121.424c0.256,2.16,0.424,4.352,0.424,6.576C265.44,422.872,240.312,448,209.44,448z"/>
<path style="fill:#333333;" d="M209.44,368c-13.232,0-24,10.768-24,24s10.768,24,24,24s24-10.768,24-24S222.672,368,209.44,368z
	 M209.44,400c-4.408,0-8-3.592-8-8s3.592-8,8-8s8,3.592,8,8S213.848,400,209.44,400z"/>
<g>
</g>
<g>
</g>
<g>
</g>
<g>
</g>
<g>
</g>
<g>
</g>
<g>
</g>
<g>
</g>
<g>
</g>
<g>
</g>
<g>
</g>
<g>
</g>
<g>
</g>
<g>
</g>
<g>
</g>
</svg>
