<?xml version="1.0" encoding="iso-8859-1"?>
<!-- Generator: Adobe Illustrator 19.0.0, SVG Export Plug-In . SVG Version: 6.00 Build 0)  -->
<svg version="1.1" id="Capa_1" xmlns="http://www.w3.org/2000/svg" xmlns:xlink="http://www.w3.org/1999/xlink" x="0px" y="0px"
	 viewBox="0 0 496 496" style="enable-background:new 0 0 496 496;" xml:space="preserve">
<path style="fill:#FFA64D;" d="M248,8c-57.44,0-104,46.56-104,104c0,43.248,26.4,80.328,63.96,96.008l80.04,0.024
	c37.584-15.672,64-52.768,64-96.032C352,54.56,305.44,8,248,8z"/>
<g>
	<path style="fill:#333333;" d="M336,320V200h-18.744C343.848,179.112,360,147,360,112C360,50.24,309.76,0,248,0S136,50.24,136,112
		c0,35,16.152,67.112,42.744,88H160v120H0v176h496V320H336z M256,200v-80h24.408c2.968,33.832,24.176,51.6,36.288,59.048
		c-8.512,8.712-18.744,15.88-30.368,20.952H256z M343.592,104h-47.144c3.096-28.088,21.976-41.752,30.456-46.536
		C336.224,70.904,342.168,86.816,343.592,104z M343.648,120c-1.408,17.024-7.272,33-16.648,46.584
		c-8.448-4.736-27.44-18.408-30.544-46.584H343.648z M316.624,45c-12.128,7.472-33.256,25.232-36.216,59H256V16.408
		C279.68,18.376,300.928,28.928,316.624,45z M240,16.408V104h-24.408c-2.96-33.768-24.088-51.528-36.216-59
		C195.072,28.928,216.32,18.376,240,16.408z M152.408,104c1.432-17.184,7.368-33.096,16.68-46.536
		c8.488,4.776,27.368,18.44,30.456,46.536H152.408z M199.544,120c-3.104,28.184-22.112,41.856-30.536,46.576
		c-9.384-13.584-15.248-29.56-16.656-46.576H199.544z M179.304,179.048c12.112-7.448,33.32-25.216,36.288-59.048H240v80h-30.32
		C198.048,194.936,187.816,187.76,179.304,179.048z M16,336h144v144H16V336z M480,480H336v-16h-16v16H176V336v-8V216h64h16h64v112
		v120h16V336h144V480z"/>
	<path style="fill:#333333;" d="M128,412.944V392c0-22.056-17.944-40-40-40s-40,17.944-40,40v8h16v-8c0-13.232,10.768-24,24-24
		s24,10.768,24,24v11.056l-64,32V464h80v-16H64v-3.056L128,412.944z"/>
	<path style="fill:#333333;" d="M416,448h-48v16h48c17.648,0,32-14.352,32-32c0-9.544-4.2-18.136-10.856-24
		C443.8,402.136,448,393.544,448,384c0-17.648-14.352-32-32-32h-48v16h48c8.824,0,16,7.176,16,16s-7.176,16-16,16h-48v16h48
		c8.824,0,16,7.176,16,16S424.824,448,416,448z"/>
	<polygon style="fill:#333333;" points="209.6,267.2 222.4,276.8 240,253.336 240,336 256,336 256,232 236,232 	"/>
	<rect x="432" style="fill:#333333;" width="16" height="16"/>
	<rect x="432" y="32" style="fill:#333333;" width="16" height="16"/>
	<rect x="448" y="16" style="fill:#333333;" width="16" height="16"/>
	<rect x="416" y="16" style="fill:#333333;" width="16" height="16"/>
	<rect x="72" y="168" style="fill:#333333;" width="16" height="16"/>
	<rect x="72" y="200" style="fill:#333333;" width="16" height="16"/>
	<rect x="88" y="184" style="fill:#333333;" width="16" height="16"/>
	<rect x="56" y="184" style="fill:#333333;" width="16" height="16"/>
	<rect x="400" y="136" style="fill:#333333;" width="16" height="16"/>
	<rect x="400" y="168" style="fill:#333333;" width="16" height="16"/>
	<rect x="416" y="152" style="fill:#333333;" width="16" height="16"/>
	<rect x="384" y="152" style="fill:#333333;" width="16" height="16"/>
	<rect x="104" y="16" style="fill:#333333;" width="16" height="16"/>
	<rect x="104" y="48" style="fill:#333333;" width="16" height="16"/>
	<rect x="120" y="32" style="fill:#333333;" width="16" height="16"/>
	<rect x="88" y="32" style="fill:#333333;" width="16" height="16"/>
</g>
<g>
</g>
<g>
</g>
<g>
</g>
<g>
</g>
<g>
</g>
<g>
</g>
<g>
</g>
<g>
</g>
<g>
</g>
<g>
</g>
<g>
</g>
<g>
</g>
<g>
</g>
<g>
</g>
<g>
</g>
</svg>
