<?xml version="1.0" encoding="iso-8859-1"?>
<!-- Generator: Adobe Illustrator 19.0.0, SVG Export Plug-In . SVG Version: 6.00 Build 0)  -->
<svg version="1.1" id="Capa_1" xmlns="http://www.w3.org/2000/svg" xmlns:xlink="http://www.w3.org/1999/xlink" x="0px" y="0px"
	 viewBox="0 0 498.891 498.891" style="enable-background:new 0 0 498.891 498.891;" xml:space="preserve">
<path style="fill:#FFA64D;" d="M297.685,17.803C183.797-17.693,62.693,45.859,27.197,159.747
	c-7.576,24.312-10.624,48.952-9.648,73.016c6.328-11.624,20.2-17.552,33.336-13.44l0.528,0.168
	c11.032,3.456,18.84,13.264,19.72,24.752l3.064,40.36l14.488,13.168l9.544-30.2l36.032-113.984
	c3.976-12.592,17.456-19.584,30.096-15.624s19.664,17.384,15.688,29.976l4.808-15.2c3.976-12.592,17.456-19.584,30.096-15.624
	c12.64,3.96,19.664,17.384,15.688,29.976c3.984-12.592,17.456-19.584,30.096-15.624s19.664,17.384,15.688,29.976l-36.032,113.984
	l26.4-83.512c4-12.64,17.472-19.664,30.12-15.696c12.632,3.96,19.656,17.424,15.664,30.048l-65.76,208.032
	c-0.584,1.84-1.256,3.648-1.944,5.448l0.016,0.016c87.6-4.664,167.12-62.824,194.752-151.48
	C475.125,174.403,411.573,53.299,297.685,17.803z"/>
<path style="fill:#333333;" d="M494.069,204.307c-3.944-7.576-10.616-13.16-18.776-15.712c-5.488-1.72-11.168-1.872-16.536-0.68
	l1.28-4.056c2.568-8.12,1.816-16.744-2.128-24.296c-3.28-6.304-8.528-11.112-14.88-14.064
	c-23.488-62.504-74.44-113.984-142.968-135.344C182.189-26.565,56.317,39.443,19.557,157.371c-7.496,24.048-10.792,48.88-10,73.824
	c-0.632,1.36-1.328,2.68-1.792,4.152c-0.944,3-1.496,6.12-1.632,9.248L1.229,354.579c-0.36,8.088,1.72,15.992,6.016,22.864
	l31.768,50.792l-21.208,65.312l15.216,4.936l23.52-72.408l-35.744-57.12c-2.568-4.112-3.816-8.832-3.592-13.664l4.904-109.992
	c0.08-1.744,0.384-3.488,0.904-5.152c3.36-10.624,14.832-16.544,25.992-13.032c7.952,2.496,13.504,9.456,14.136,17.72l5.464,71.936
	l20.424,6.416l52.848-167.192c2.648-8.368,11.616-13.04,20.088-10.4c4.088,1.28,7.424,4.072,9.392,7.856
	c1.952,3.752,2.336,8.04,1.064,12.072l-31.232,98.784l15.248,4.832l36.04-113.984c2.656-8.384,11.656-13.024,20.08-10.4
	c4.088,1.288,7.432,4.072,9.4,7.856c1.952,3.752,2.328,8.04,1.056,12.072l-36.032,113.984l15.248,4.832l36.032-113.992
	c2.656-8.368,11.624-13.032,20.088-10.4c4.088,1.28,7.424,4.072,9.392,7.848c1.952,3.76,2.336,8.048,1.064,12.08l-36.04,113.984
	l15.248,4.832l26.408-83.512c2.656-8.416,11.664-13.088,20.104-10.48c4.072,1.28,7.4,4.064,9.368,7.84
	c1.968,3.784,2.344,8.104,1.064,12.168l-65.768,208.032c-5.2,16.456-15.064,30.848-28.52,41.64l-1.688,1.352l-7.024,18.256
	l14.936,5.736l5.488-14.256c12.16-10.176,21.656-22.928,28.008-37.328c90.92-6.96,169.664-69.248,196.896-156.624
	c8.784-28.192,11.632-56.816,9.368-84.584c4.024-2.808,9.056-3.736,13.88-2.224c4.072,1.28,7.4,4.064,9.368,7.84
	c1.968,3.784,2.344,8.104,1.064,12.168l-65.768,208.032c-5.2,16.456-15.064,30.848-28.52,41.64l-1.688,1.352l-7.024,18.256
	l14.936,5.736l5.488-14.256c15.072-12.608,26.136-29.128,32.064-47.896l65.768-208.04
	C498.773,220.547,498.013,211.883,494.069,204.307z M419.813,132.083c-10.896,9.68-53.912,38.808-152.544,10.2l35.616-114.264
	C355.725,46.723,396.573,84.995,419.813,132.083z M287.605,23.251l-35.616,114.256c-97.416-32.488-116.264-80.896-119.728-95.056
	C178.133,16.915,233.493,8.627,287.605,23.251z M82.645,290.315l-3.544-46.68c-1.136-14.832-11.056-27.312-25.832-31.936
	c-9.52-2.984-19.392-1.824-27.648,2.464c0.72-14.936,3.216-29.728,7.152-44.288l80.056,24.952L82.645,290.315z M182.205,140.939
	c-3.936-4.96-9.256-8.656-15.456-10.592c-16.8-5.256-34.824,4.08-40.12,20.84l-8.968,28.376l-80.256-25.008
	c15.488-43.76,44.376-79.304,80.592-103.424c5.4,17.304,22.632,50.608,77.08,79.672
	C190.013,132.987,185.573,136.435,182.205,140.939z M283.973,343.275c38.416,26.016,48.24,52.488,50.616,62.328
	c-23.8,13.328-50.352,21.96-78.248,25.08L283.973,343.275z M348.781,396.891c-4.816-15.304-18.984-43.136-59.8-69.472l22.36-70.736
	l86.856,27.072l4.768-15.28l-86.8-27.048l4.024-12.736c2.576-8.144,1.824-16.808-2.128-24.384
	c-3.944-7.576-10.616-13.16-18.776-15.712c-5.576-1.752-11.24-1.76-16.568-0.552l1.32-4.176c2.192-6.92,1.816-14.176-0.736-20.856
	c23.696,5.488,44.144,7.712,61.616,7.712c44.32,0,69.664-14,81.696-23.408c16.096,40.432,19.672,86.088,7.56,130.888l-14.376-4.48
	l-4.768,15.28l14.272,4.448C414.077,336.387,385.413,372.379,348.781,396.891z"/>
<g>
</g>
<g>
</g>
<g>
</g>
<g>
</g>
<g>
</g>
<g>
</g>
<g>
</g>
<g>
</g>
<g>
</g>
<g>
</g>
<g>
</g>
<g>
</g>
<g>
</g>
<g>
</g>
<g>
</g>
</svg>
